<svg width="25" height="30" viewBox="0 0 25 30" fill="none" xmlns="http://www.w3.org/2000/svg">
<path fill-rule="evenodd" clip-rule="evenodd" d="M16.4846 11.9431C16.4846 9.82751 14.7696 8.11252 12.654 8.11252C10.5385 8.11252 8.82346 9.82751 8.82346 11.9431C8.82346 14.0586 10.5384 15.7736 12.654 15.7736C14.7696 15.7736 16.4846 14.0586 16.4846 11.9431ZM12.654 17.0234C15.4598 17.0234 17.7344 14.7489 17.7344 11.9431C17.7344 9.13725 15.4598 6.86269 12.654 6.86269C9.84819 6.86269 7.57363 9.13725 7.57363 11.9431C7.57363 14.7489 9.84819 17.0234 12.654 17.0234Z" fill="#1B85E5"/>
<path fill-rule="evenodd" clip-rule="evenodd" d="M12.504 0L16.0281 3.51178H21.4821V8.57938L24.8606 11.946L21.4821 15.3126V20.1598H16.0281L12.504 23.6716L8.97989 20.1598H3.37843V15.3126L0 11.946L3.37843 8.57938V3.51178H8.97989L12.504 0ZM12.504 1.41154L9.39301 4.51164H4.37829V8.99456L1.4165 11.946L4.37829 14.8974V19.1599H9.39301L12.504 22.26L15.615 19.1599H20.4823V14.8974L23.4441 11.946L20.4823 8.99456V4.51164H15.615L12.504 1.41154Z" fill="white"/>
<path fill-rule="evenodd" clip-rule="evenodd" d="M5.84174 20.8809L6.76632 21.2615L5.2082 25.0463L7.71056 23.8973L8.63927 26.3539L10.1953 22.6562L11.1169 23.044L8.58955 29.0498L7.15416 25.253L3.31641 27.0151L5.84174 20.8809Z" fill="#1B85E5"/>
<path fill-rule="evenodd" clip-rule="evenodd" d="M19.2559 20.8809L18.3313 21.2615L19.8895 25.0463L17.3871 23.8973L16.4584 26.3539L14.9023 22.6562L13.9807 23.044L16.5081 29.0498L17.9435 25.253L21.7812 27.0151L19.2559 20.8809Z" fill="white"/>
</svg>
