<svg width="28" height="28" viewBox="0 0 28 28" fill="none" xmlns="http://www.w3.org/2000/svg">
<path fill-rule="evenodd" clip-rule="evenodd" d="M14.172 25.341C20.7094 25.341 26.0089 20.0414 26.0089 13.5041C26.0089 6.96673 20.7094 1.66717 14.172 1.66717C7.6347 1.66717 2.33514 6.96673 2.33514 13.5041C2.33514 20.0414 7.6347 25.341 14.172 25.341ZM14.172 27.0081C21.6301 27.0081 27.6761 20.9622 27.6761 13.5041C27.6761 6.04598 21.6301 0 14.172 0C6.71394 0 0.667969 6.04598 0.667969 13.5041C0.667969 20.9622 6.71394 27.0081 14.172 27.0081Z" fill="#1B85E5"/>
<path fill-rule="evenodd" clip-rule="evenodd" d="M23.9756 14.1226L22.6459 14.0193C22.6634 13.7944 22.6723 13.5669 22.6723 13.337C22.6723 13.1071 22.6634 12.8796 22.6459 12.6547L23.9756 12.5514C23.9958 12.8106 24.006 13.0726 24.006 13.337C24.006 13.6014 23.9958 13.8634 23.9756 14.1226ZM23.7318 11.0008L22.4346 11.3112C22.3281 10.8661 22.1873 10.4343 22.015 10.0189L23.247 9.50796C23.446 9.98788 23.6087 10.4866 23.7318 11.0008ZM22.5333 8.10983L21.3967 8.80776C21.1585 8.4198 20.8905 8.05186 20.5958 7.70715L21.6095 6.84049C21.9493 7.23787 22.2584 7.6622 22.5333 8.10983ZM20.4995 5.73046L19.6329 6.74424C19.2881 6.44955 18.9202 6.18152 18.5322 5.94328L19.2302 4.80674C19.6778 5.08162 20.1021 5.39074 20.4995 5.73046ZM17.832 4.09302L17.3211 5.32502C16.9057 5.15273 16.4739 5.01188 16.0288 4.90538L16.3392 3.60826C16.8534 3.73128 17.3521 3.89401 17.832 4.09302ZM14.7886 3.36438L14.6853 4.69411C14.4604 4.67664 14.2329 4.66772 14.003 4.66772C13.7731 4.66772 13.5456 4.67664 13.3207 4.69411L13.2174 3.36438C13.4766 3.34424 13.7386 3.33398 14.003 3.33398C14.2674 3.33398 14.5294 3.34424 14.7886 3.36438ZM11.6668 3.60826L11.9772 4.90538C11.5321 5.01188 11.1004 5.15273 10.6849 5.32502L10.174 4.09302C10.6539 3.89401 11.1527 3.73128 11.6668 3.60826ZM8.77584 4.80674L9.47378 5.94328C9.08582 6.18152 8.71787 6.44955 8.37316 6.74424L7.5065 5.73046C7.90389 5.39074 8.32822 5.08162 8.77584 4.80674ZM6.39648 6.84049L7.41025 7.70715C7.11557 8.05186 6.84754 8.41981 6.6093 8.80776L5.47275 8.10983C5.74763 7.66221 6.05676 7.23788 6.39648 6.84049ZM4.75903 9.50797L5.99104 10.0189C5.81875 10.4343 5.67789 10.8661 5.5714 11.3112L4.27427 11.0008C4.39729 10.4866 4.56002 9.98788 4.75903 9.50797ZM4.0304 12.5514C4.01026 12.8106 4 13.0726 4 13.337C4 13.6014 4.01026 13.8634 4.0304 14.1226L5.36012 14.0193C5.34265 13.7944 5.33373 13.5669 5.33373 13.337C5.33373 13.1071 5.34265 12.8796 5.36012 12.6547L4.0304 12.5514ZM4.27427 15.6732L5.5714 15.3628C5.67789 15.8079 5.81875 16.2397 5.99104 16.6551L4.75903 17.166C4.56002 16.6861 4.39729 16.1874 4.27427 15.6732ZM5.47275 18.5642L6.6093 17.8662C6.84754 18.2542 7.11557 18.6221 7.41026 18.9668L6.39648 19.8335C6.05676 19.4361 5.74763 19.0118 5.47275 18.5642ZM7.5065 20.9435L8.37316 19.9298C8.71787 20.2244 9.08582 20.4925 9.47378 20.7307L8.77584 21.8673C8.32822 21.5924 7.90389 21.2833 7.5065 20.9435ZM10.174 22.581L10.6849 21.349C11.1004 21.5213 11.5321 21.6621 11.9772 21.7686L11.6668 23.0657C11.1527 22.9427 10.6539 22.78 10.174 22.581ZM13.2174 23.3096L13.3207 21.9799C13.5456 21.9974 13.7731 22.0063 14.003 22.0063C14.2329 22.0063 14.4604 21.9974 14.6853 21.9799L14.7886 23.3096C14.5294 23.3298 14.2674 23.34 14.003 23.34C13.7386 23.34 13.4766 23.3298 13.2174 23.3096ZM16.3392 23.0657L16.0288 21.7686C16.4739 21.6621 16.9057 21.5213 17.3212 21.349L17.832 22.581C17.3521 22.78 16.8534 22.9427 16.3392 23.0657ZM19.2302 21.8673L18.5322 20.7307C18.9202 20.4925 19.2882 20.2244 19.6329 19.9298L20.4995 20.9435C20.1021 21.2833 19.6778 21.5924 19.2302 21.8673ZM21.6095 19.8335L20.5958 18.9668C20.8905 18.6221 21.1585 18.2542 21.3967 17.8662L22.5333 18.5642C22.2584 19.0118 21.9493 19.4361 21.6095 19.8335ZM23.247 17.166L22.015 16.6551C22.1873 16.2397 22.3281 15.8079 22.4346 15.3628L23.7318 15.6732C23.6087 16.1874 23.446 16.6861 23.247 17.166Z" fill="white"/>
<path d="M9.66958 4.83479C9.66958 7.50497 7.50497 9.66958 4.83479 9.66958C2.16461 9.66958 0 7.50497 0 4.83479C0 2.16461 2.16461 0 4.83479 0C7.50497 0 9.66958 2.16461 9.66958 4.83479Z" fill="#1C1C1C"/>
<path fill-rule="evenodd" clip-rule="evenodd" d="M4.83479 8.00241C6.58422 8.00241 8.00241 6.58422 8.00241 4.83479C8.00241 3.08536 6.58422 1.66717 4.83479 1.66717C3.08536 1.66717 1.66717 3.08536 1.66717 4.83479C1.66717 6.58422 3.08536 8.00241 4.83479 8.00241ZM4.83479 9.66958C7.50497 9.66958 9.66958 7.50497 9.66958 4.83479C9.66958 2.16461 7.50497 0 4.83479 0C2.16461 0 0 2.16461 0 4.83479C0 7.50497 2.16461 9.66958 4.83479 9.66958Z" fill="white"/>
<path fill-rule="evenodd" clip-rule="evenodd" d="M11.2592 12.2709L6.75781 7.93625L7.91423 6.73535L12.4156 11.07L11.2592 12.2709Z" fill="white"/>
</svg>
