<svg width="25" height="27" viewBox="0 0 25 27" fill="none" xmlns="http://www.w3.org/2000/svg">
<path fill-rule="evenodd" clip-rule="evenodd" d="M12.723 25.4521L1.88863 19.7197L1.88863 6.99891L12.7282 1.82817L23.1094 7.26169L23.1094 19.7136L12.723 25.4521ZM13.2178 24.0365L21.625 19.3914L13.2178 14.1198L13.2178 24.0365ZM13.6907 13.2361L22.1095 18.5151L22.1095 8.42573L13.6907 13.2361ZM21.5681 7.58352L13.2178 3.21294L13.2178 12.3548L21.5681 7.58352ZM12.2179 12.3548L3.46609 7.35422L12.2179 3.17939L12.2179 12.3548ZM2.88849 8.17576L11.7289 13.2269L2.88849 18.5353L2.88849 8.17576ZM3.40553 19.3911L12.2179 24.0537L12.2179 14.0995L3.40553 19.3911Z" fill="white"/>
<path d="M12.6245 9.74907C14.6262 9.74907 16.249 11.3718 16.249 13.3736C16.249 15.3753 14.6262 16.998 12.6245 16.998C10.6227 16.998 9 15.3753 9 13.3736C9 11.3718 10.6227 9.74907 12.6245 9.74907Z" fill="#1B85E5"/>
<path fill-rule="evenodd" clip-rule="evenodd" d="M14.9992 13.3736C14.9992 12.0621 13.936 10.9989 12.6245 10.9989C11.313 10.9989 10.2498 12.0621 10.2498 13.3736C10.2498 14.685 11.313 15.7482 12.6245 15.7482C13.936 15.7482 14.9992 14.685 14.9992 13.3736ZM16.249 13.3736C16.249 11.3718 14.6262 9.74907 12.6245 9.74907C10.6227 9.74907 9 11.3718 9 13.3736C9 15.3753 10.6227 16.998 12.6245 16.998C14.6262 16.998 16.249 15.3753 16.249 13.3736Z" fill="#1C1C1C"/>
<path d="M12.7457 0.000705133C14.1263 0.000705073 15.2454 1.11984 15.2454 2.50035C15.2454 3.88087 14.1263 5 12.7457 5C11.3652 5 10.2461 3.88087 10.2461 2.50035C10.2461 1.11984 11.3652 0.000705193 12.7457 0.000705133Z" fill="#1C1C1C"/>
<path fill-rule="evenodd" clip-rule="evenodd" d="M13.9956 2.50035C13.9956 1.81009 13.436 1.25053 12.7457 1.25053C12.0555 1.25053 11.4959 1.81009 11.4959 2.50035C11.4959 3.19061 12.0555 3.75018 12.7457 3.75018C13.436 3.75018 13.9956 3.19061 13.9956 2.50035ZM15.2454 2.50035C15.2454 1.11984 14.1263 0.000705073 12.7457 0.000705133C11.3652 0.000705193 10.2461 1.11984 10.2461 2.50035C10.2461 3.88087 11.3652 5 12.7457 5C14.1263 5 15.2454 3.88087 15.2454 2.50035Z" fill="#1B85E5"/>
<path d="M12.7457 26.9964C14.1263 26.9964 15.2454 25.8772 15.2454 24.4967C15.2454 23.1162 14.1263 21.9971 12.7457 21.9971C11.3652 21.9971 10.2461 23.1162 10.2461 24.4967C10.2461 25.8772 11.3652 26.9964 12.7457 26.9964Z" fill="#1C1C1C"/>
<path fill-rule="evenodd" clip-rule="evenodd" d="M13.9956 24.4967C13.9956 25.187 13.436 25.7465 12.7457 25.7465C12.0555 25.7465 11.4959 25.187 11.4959 24.4967C11.4959 23.8065 12.0555 23.2469 12.7457 23.2469C13.436 23.2469 13.9956 23.8065 13.9956 24.4967ZM15.2454 24.4967C15.2454 25.8772 14.1263 26.9964 12.7457 26.9964C11.3652 26.9964 10.2461 25.8772 10.2461 24.4967C10.2461 23.1162 11.3652 21.9971 12.7457 21.9971C14.1263 21.9971 15.2454 23.1162 15.2454 24.4967Z" fill="#1B85E5"/>
<path d="M2.49965 4.99973C3.88016 4.99973 4.99929 6.11886 4.99929 7.49938C4.99929 8.87989 3.88016 9.99902 2.49965 9.99902C1.11913 9.99902 -4.89187e-08 8.87989 -1.09263e-07 7.49938C-1.69607e-07 6.11886 1.11913 4.99973 2.49965 4.99973Z" fill="#1C1C1C"/>
<path fill-rule="evenodd" clip-rule="evenodd" d="M3.74947 7.49938C3.74947 6.80912 3.18991 6.24955 2.49965 6.24955C1.80939 6.24955 1.24982 6.80912 1.24982 7.49938C1.24982 8.18963 1.80939 8.7492 2.49965 8.7492C3.18991 8.7492 3.74947 8.18963 3.74947 7.49938ZM4.99929 7.49938C4.99929 6.11886 3.88016 4.99973 2.49965 4.99973C1.11913 4.99973 -1.69607e-07 6.11886 -1.09263e-07 7.49938C-4.89187e-08 8.87989 1.11913 9.99902 2.49965 9.99902C3.88016 9.99902 4.99929 8.87989 4.99929 7.49938Z" fill="#1B85E5"/>
<path d="M22.4957 4.99973C23.8763 4.99973 24.9954 6.11886 24.9954 7.49938C24.9954 8.87989 23.8763 9.99902 22.4957 9.99902C21.1152 9.99902 19.9961 8.87989 19.9961 7.49938C19.9961 6.11886 21.1152 4.99973 22.4957 4.99973Z" fill="#1C1C1C"/>
<path fill-rule="evenodd" clip-rule="evenodd" d="M23.7456 7.49938C23.7456 6.80912 23.186 6.24955 22.4957 6.24955C21.8055 6.24955 21.2459 6.80912 21.2459 7.49938C21.2459 8.18963 21.8055 8.7492 22.4957 8.7492C23.186 8.7492 23.7456 8.18963 23.7456 7.49938ZM24.9954 7.49938C24.9954 6.11886 23.8763 4.99973 22.4957 4.99973C21.1152 4.99973 19.9961 6.11886 19.9961 7.49938C19.9961 8.87989 21.1152 9.99902 22.4957 9.99902C23.8763 9.99902 24.9954 8.87989 24.9954 7.49938Z" fill="#1B85E5"/>
<path d="M2.49965 21.9973C3.88016 21.9973 4.99929 20.8782 4.99929 19.4977C4.99929 18.1172 3.88016 16.998 2.49965 16.998C1.11913 16.998 4.89187e-08 18.1172 1.09263e-07 19.4977C1.69607e-07 20.8782 1.11913 21.9973 2.49965 21.9973Z" fill="#1C1C1C"/>
<path fill-rule="evenodd" clip-rule="evenodd" d="M3.74947 19.4977C3.74947 20.188 3.18991 20.7475 2.49965 20.7475C1.80939 20.7475 1.24982 20.188 1.24982 19.4977C1.24982 18.8074 1.80939 18.2479 2.49965 18.2479C3.18991 18.2479 3.74947 18.8074 3.74947 19.4977ZM4.99929 19.4977C4.99929 20.8782 3.88016 21.9973 2.49965 21.9973C1.11913 21.9973 1.69607e-07 20.8782 1.09263e-07 19.4977C4.89187e-08 18.1172 1.11913 16.998 2.49965 16.998C3.88016 16.998 4.99929 18.1172 4.99929 19.4977Z" fill="#1B85E5"/>
<path d="M22.4957 21.9973C23.8763 21.9973 24.9954 20.8782 24.9954 19.4977C24.9954 18.1172 23.8763 16.998 22.4957 16.998C21.1152 16.998 19.9961 18.1172 19.9961 19.4977C19.9961 20.8782 21.1152 21.9973 22.4957 21.9973Z" fill="#1C1C1C"/>
<path fill-rule="evenodd" clip-rule="evenodd" d="M23.7456 19.4977C23.7456 20.188 23.186 20.7475 22.4957 20.7475C21.8055 20.7475 21.2459 20.188 21.2459 19.4977C21.2459 18.8074 21.8055 18.2479 22.4957 18.2479C23.186 18.2479 23.7456 18.8074 23.7456 19.4977ZM24.9954 19.4977C24.9954 20.8782 23.8763 21.9973 22.4957 21.9973C21.1152 21.9973 19.9961 20.8782 19.9961 19.4977C19.9961 18.1172 21.1152 16.998 22.4957 16.998C23.8763 16.998 24.9954 18.1172 24.9954 19.4977Z" fill="#1B85E5"/>
</svg>
