<svg width="29" height="26" viewBox="0 0 29 26" fill="none" xmlns="http://www.w3.org/2000/svg">
<path fill-rule="evenodd" clip-rule="evenodd" d="M13.9663 22.89C20.0583 22.89 24.9968 18.0925 24.9968 12.1746C24.9968 6.25662 20.0583 1.45917 13.9663 1.45917C7.87424 1.45917 2.93568 6.25662 2.93568 12.1746C2.93568 18.0925 7.87424 22.89 13.9663 22.89ZM13.9663 24.3492C20.8879 24.3492 26.4989 18.8984 26.4989 12.1746C26.4989 5.45075 20.8879 0 13.9663 0C7.04466 0 1.43359 5.45075 1.43359 12.1746C1.43359 18.8984 7.04466 24.3492 13.9663 24.3492Z" fill="white"/>
<path fill-rule="evenodd" clip-rule="evenodd" d="M21.7226 12.947L20.5431 12.8322C20.5642 12.6162 20.575 12.3968 20.575 12.1745C20.575 11.9523 20.5642 11.7329 20.5431 11.5169L21.7226 11.4021C21.7473 11.6562 21.76 11.9139 21.76 12.1745C21.76 12.4352 21.7473 12.6929 21.7226 12.947ZM21.4226 9.88701L20.2885 10.2305C20.1604 9.80788 19.9915 9.40278 19.7863 9.01973L20.8309 8.46038C21.0726 8.91146 21.2716 9.3888 21.4226 9.88701ZM19.9716 7.17693L19.0559 7.92899C18.7773 7.58995 18.466 7.27871 18.1268 7.00014L18.8791 6.08479C19.2779 6.41234 19.6439 6.77827 19.9716 7.17693ZM17.5953 5.22566L17.0358 6.26997C16.6526 6.06481 16.2474 5.89597 15.8246 5.76793L16.1682 4.63414C16.6666 4.78509 17.1441 4.98406 17.5953 5.22566ZM14.6527 4.33426L14.5379 5.51337C14.3218 5.49235 14.1023 5.48155 13.88 5.48155C13.6577 5.48155 13.4382 5.49235 13.2221 5.51337L13.1073 4.33427C13.3615 4.30953 13.6193 4.29688 13.88 4.29688C14.1407 4.29688 14.3985 4.30953 14.6527 4.33426ZM11.5918 4.63414L11.9354 5.76793C11.5126 5.89597 11.1074 6.06481 10.7243 6.26997L10.1647 5.22566C10.6159 4.98406 11.0934 4.78509 11.5918 4.63414ZM8.8809 6.08479L9.63319 7.00014C9.29405 7.27871 8.98271 7.58995 8.70406 7.92899L7.78844 7.17693C8.11609 6.77827 8.48213 6.41234 8.8809 6.08479ZM6.92906 8.46038L7.97368 9.01973C7.76845 9.40278 7.59957 9.80788 7.47149 10.2305L6.33737 9.88701C6.48836 9.3888 6.68738 8.91146 6.92906 8.46038ZM6.0374 11.4021C6.01266 11.6562 6 11.9139 6 12.1745C6 12.4352 6.01266 12.6929 6.0374 12.947L7.21686 12.8322C7.19582 12.6162 7.18503 12.3968 7.18503 12.1745C7.18503 11.9523 7.19582 11.7329 7.21686 11.5169L6.0374 11.4021ZM6.33737 14.4621L7.47149 14.1186C7.59957 14.5412 7.76845 14.9463 7.97368 15.3294L6.92906 15.8887C6.68738 15.4376 6.48836 14.9603 6.33737 14.4621ZM7.78844 17.1722L8.70406 16.4201C8.98271 16.7591 9.29405 17.0704 9.63319 17.349L8.8809 18.2643C8.48213 17.9368 8.11609 17.5708 7.78844 17.1722ZM10.1647 19.1234L10.7243 18.0791C11.1074 18.2843 11.5126 18.4531 11.9354 18.5812L11.5918 19.715C11.0934 19.564 10.6159 19.365 10.1647 19.1234ZM13.1073 20.0148L13.2221 18.8357C13.4382 18.8568 13.6577 18.8675 13.88 18.8675C14.1023 18.8675 14.3218 18.8568 14.5379 18.8357L14.6527 20.0148C14.3985 20.0396 14.1407 20.0522 13.88 20.0522C13.6193 20.0522 13.3615 20.0396 13.1073 20.0148ZM16.1682 19.715L15.8246 18.5812C16.2474 18.4531 16.6526 18.2843 17.0357 18.0791L17.5953 19.1234C17.1441 19.365 16.6666 19.564 16.1682 19.715ZM18.8791 18.2643L18.1268 17.349C18.466 17.0704 18.7773 16.7591 19.0559 16.4201L19.9716 17.1722C19.6439 17.5708 19.2779 17.9368 18.8791 18.2643ZM20.8309 15.8887L19.7863 15.3294C19.9915 14.9463 20.1604 14.5412 20.2885 14.1186L21.4226 14.4621C21.2716 14.9603 21.0726 15.4376 20.8309 15.8887Z" fill="white"/>
<path d="M21.995 19.175C21.7228 17.6528 22.7361 16.1982 24.2582 15.926C25.7803 15.6538 27.2349 16.6671 27.5071 18.1892C27.7793 19.7114 26.7661 21.166 25.2439 21.4382C23.7218 21.7104 22.2672 20.6971 21.995 19.175Z" fill="#1C1C1C"/>
<path fill-rule="evenodd" clip-rule="evenodd" d="M24.4657 17.0866C23.5845 17.2441 22.9979 18.0862 23.1555 18.9674C23.3131 19.8486 24.1552 20.4352 25.0364 20.2777C25.9176 20.1201 26.5042 19.278 26.3466 18.3968C26.189 17.5156 25.3469 16.929 24.4657 17.0866ZM24.2582 15.926C22.7361 16.1982 21.7228 17.6528 21.995 19.175C22.2672 20.6971 23.7218 21.7104 25.2439 21.4382C26.7661 21.166 27.7793 19.7114 27.5071 18.1892C27.2349 16.6671 25.7803 15.6538 24.2582 15.926Z" fill="#1B85E5"/>
<path d="M3.25282 22.5275C2.98062 21.0054 3.99389 19.5508 5.51602 19.2786C7.03815 19.0064 8.49275 20.0197 8.76495 21.5418C9.03715 23.0639 8.02388 24.5185 6.50175 24.7907C4.97961 25.0629 3.52502 24.0496 3.25282 22.5275Z" fill="#1C1C1C"/>
<path fill-rule="evenodd" clip-rule="evenodd" d="M5.72355 20.4391C4.84235 20.5967 4.25575 21.4388 4.41333 22.32C4.57092 23.2012 5.41301 23.7878 6.29421 23.6302C7.17541 23.4726 7.76202 22.6305 7.60443 21.7493C7.44685 20.8681 6.60475 20.2815 5.72355 20.4391ZM5.51602 19.2786C3.99389 19.5508 2.98062 21.0054 3.25282 22.5275C3.52502 24.0496 4.97961 25.0629 6.50175 24.7907C8.02388 24.5185 9.03715 23.0639 8.76495 21.5418C8.49275 20.0197 7.03815 19.0064 5.51602 19.2786Z" fill="#1B85E5"/>
<path d="M0.495005 7.09392C0.222804 5.57179 1.23607 4.11719 2.75821 3.84499C4.28034 3.57279 5.73493 4.58606 6.00714 6.10819C6.27934 7.63033 5.26607 9.08492 3.74393 9.35712C2.2218 9.62932 0.767207 8.61605 0.495005 7.09392Z" fill="#1C1C1C"/>
<path fill-rule="evenodd" clip-rule="evenodd" d="M2.96574 5.00551C2.08454 5.16309 1.49794 6.00519 1.65552 6.88639C1.8131 7.76759 2.6552 8.35419 3.5364 8.19661C4.4176 8.03902 5.00421 7.19692 4.84662 6.31573C4.68904 5.43453 3.84694 4.84792 2.96574 5.00551ZM2.75821 3.84499C1.23607 4.11719 0.222804 5.57179 0.495005 7.09392C0.767207 8.61605 2.2218 9.62932 3.74393 9.35712C5.26607 9.08492 6.27934 7.63033 6.00714 6.10819C5.73493 4.58606 4.28034 3.57279 2.75821 3.84499Z" fill="#1B85E5"/>
<path d="M19.2333 3.74236C18.9611 2.22023 19.9744 0.76563 21.4965 0.493429C23.0186 0.221228 24.4732 1.2345 24.7454 2.75663C25.0176 4.27876 24.0043 5.73336 22.4822 6.00556C20.9601 6.27776 19.5055 5.26449 19.2333 3.74236Z" fill="#1C1C1C"/>
<path fill-rule="evenodd" clip-rule="evenodd" d="M21.704 1.65394C20.8228 1.81153 20.2362 2.65363 20.3938 3.53482C20.5514 4.41602 21.3935 5.00263 22.2747 4.84505C23.1559 4.68746 23.7425 3.84536 23.5849 2.96416C23.4273 2.08296 22.5852 1.49636 21.704 1.65394ZM21.4965 0.493429C19.9744 0.76563 18.9611 2.22023 19.2333 3.74236C19.5055 5.26449 20.9601 6.27776 22.4822 6.00556C24.0043 5.73336 25.0176 4.27876 24.7454 2.75663C24.4732 1.2345 23.0186 0.221228 21.4965 0.493429Z" fill="#1B85E5"/>
</svg>
