<svg width="28" height="28" viewBox="0 0 28 28" fill="none" xmlns="http://www.w3.org/2000/svg">
<path fill-rule="evenodd" clip-rule="evenodd" d="M7.45857 27.6196C7.17657 27.6564 6.88897 27.6753 6.59695 27.6753C6.30492 27.6753 6.01732 27.6564 5.73532 27.6196L5.89442 26.3999C6.1238 26.4298 6.35826 26.4453 6.59695 26.4453C6.83564 26.4453 7.07009 26.4298 7.29947 26.3999L7.45857 27.6196ZM4.07172 27.1748L4.54287 26.0386C4.10722 25.8579 3.7 25.6212 3.3303 25.3371L2.58083 26.3124C3.03478 26.6612 3.5354 26.9524 4.07172 27.1748ZM1.36293 25.0945L2.33822 24.345C2.05413 23.9753 1.81742 23.5681 1.63676 23.1325L0.50058 23.6036C0.722981 24.1399 1.01409 24.6406 1.36293 25.0945ZM0.0557592 21.94L1.27543 21.7809C1.24551 21.5515 1.23 21.3171 1.23 21.0784C1.23 20.8397 1.24551 20.6052 1.27543 20.3759L0.0557593 20.2168C0.018975 20.4988 0 20.7864 0 21.0784C0 21.3704 0.0189749 21.658 0.0557592 21.94ZM0.50058 18.5532L1.63676 19.0243C1.81742 18.5887 2.05413 18.1814 2.33822 17.8117L1.36293 17.0623C1.01409 17.5162 0.722981 18.0168 0.50058 18.5532ZM2.58083 15.8444L3.3303 16.8197C3.7 16.5356 4.10722 16.2989 4.54287 16.1182L4.07172 14.982C3.5354 15.2044 3.03478 15.4955 2.58083 15.8444ZM5.73533 14.5372C6.01732 14.5004 6.30492 14.4814 6.59695 14.4814C6.88897 14.4814 7.17657 14.5004 7.45857 14.5372L7.29947 15.7569C7.07009 15.727 6.83564 15.7114 6.59695 15.7114C6.35826 15.7114 6.1238 15.727 5.89442 15.7569L5.73533 14.5372ZM9.12218 14.982L8.65102 16.1182C9.08667 16.2989 9.4939 16.5356 9.86359 16.8197L10.6131 15.8444C10.1591 15.4955 9.65849 15.2044 9.12218 14.982ZM11.831 17.0623L10.8557 17.8117C11.1398 18.1814 11.3765 18.5887 11.5571 19.0243L12.6933 18.5532C12.4709 18.0168 12.1798 17.5162 11.831 17.0623ZM13.1381 20.2168L11.9185 20.3759C11.9484 20.6052 11.9639 20.8397 11.9639 21.0784C11.9639 21.3171 11.9484 21.5515 11.9185 21.7809L13.1381 21.94C13.1749 21.658 13.1939 21.3704 13.1939 21.0784C13.1939 20.7864 13.1749 20.4988 13.1381 20.2168ZM12.6933 23.6036L11.5571 23.1325C11.3765 23.5681 11.1398 23.9753 10.8557 24.345L11.831 25.0945C12.1798 24.6406 12.4709 24.1399 12.6933 23.6036ZM10.6131 26.3124L9.86359 25.3371C9.49389 25.6212 9.08667 25.8579 8.65102 26.0386L9.12218 27.1748C9.65849 26.9524 10.1591 26.6612 10.6131 26.3124Z" fill="white"/>
<path fill-rule="evenodd" clip-rule="evenodd" d="M11.9639 11.9639V6.59695C11.9639 3.63286 9.56103 1.23 6.59695 1.23C3.63286 1.23 1.23 3.63286 1.23 6.59695C1.23 9.56103 3.63286 11.9639 6.59695 11.9639H11.9639ZM6.59695 0C2.95355 0 0 2.95355 0 6.59695C0 10.2403 2.95355 13.1939 6.59695 13.1939H13.1939V6.59695C13.1939 2.95355 10.2403 0 6.59695 0Z" fill="white"/>
<path fill-rule="evenodd" clip-rule="evenodd" d="M20.2172 0.0562013C20.4992 0.0194162 20.7868 0.000441903 21.0788 0.000441928C21.3709 0.000441954 21.6585 0.0194163 21.9405 0.0562014L21.7814 1.27587C21.552 1.24595 21.3175 1.23044 21.0788 1.23044C20.8401 1.23044 20.6057 1.24595 20.3763 1.27587L20.2172 0.0562013ZM23.6041 0.501022L23.1329 1.6372C23.5686 1.81786 23.9758 2.05457 24.3455 2.33866L25.095 1.36337C24.641 1.01453 24.1404 0.723423 23.6041 0.501022ZM26.3128 2.58127L25.3376 3.33074C25.6217 3.70044 25.8584 4.10766 26.039 4.54331L27.1752 4.07216C26.9528 3.53584 26.6617 3.03522 26.3128 2.58127ZM27.62 5.73577L26.4004 5.89486C26.4303 6.12425 26.4458 6.3587 26.4458 6.59739C26.4458 6.83608 26.4303 7.07053 26.4004 7.29992L27.62 7.45901C27.6568 7.17701 27.6758 6.88942 27.6758 6.59739C27.6758 6.30536 27.6568 6.01777 27.62 5.73577ZM27.1752 9.12262L26.039 8.65146C25.8584 9.08711 25.6217 9.49434 25.3376 9.86403L26.3128 10.6135C26.6617 10.1596 26.9528 9.65894 27.1752 9.12262ZM25.095 11.8314L24.3455 10.8561C23.9758 11.1402 23.5686 11.3769 23.1329 11.5576L23.6041 12.6938C24.1404 12.4714 24.641 12.1802 25.095 11.8314ZM21.9405 13.1386C21.6585 13.1754 21.3709 13.1943 21.0788 13.1943C20.7868 13.1943 20.4992 13.1754 20.2172 13.1386L20.3763 11.9189C20.6057 11.9488 20.8401 11.9643 21.0788 11.9643C21.3175 11.9643 21.552 11.9488 21.7814 11.9189L21.9405 13.1386ZM18.5536 12.6938L19.0248 11.5576C18.5891 11.3769 18.1819 11.1402 17.8122 10.8561L17.0627 11.8314C17.5167 12.1802 18.0173 12.4714 18.5536 12.6938ZM15.8448 10.6135L16.8201 9.86403C16.536 9.49434 16.2993 9.08711 16.1186 8.65146L14.9825 9.12262C15.2049 9.65893 15.496 10.1596 15.8448 10.6135ZM14.5376 7.45901L15.7573 7.29991C15.7274 7.07053 15.7119 6.83608 15.7119 6.59739C15.7119 6.3587 15.7274 6.12424 15.7573 5.89486L14.5376 5.73577C14.5009 6.01776 14.4819 6.30536 14.4819 6.59739C14.4819 6.88942 14.5009 7.17701 14.5376 7.45901ZM14.9825 4.07216L16.1187 4.54331C16.2993 4.10766 16.536 3.70044 16.8201 3.33074L15.8448 2.58127C15.496 3.03522 15.2049 3.53584 14.9825 4.07216ZM17.0627 1.36337L17.8122 2.33866C18.1819 2.05457 18.5891 1.81786 19.0248 1.6372L18.5536 0.501021C18.0173 0.723421 17.5167 1.01453 17.0627 1.36337Z" fill="white"/>
<path fill-rule="evenodd" clip-rule="evenodd" d="M16.0194 16.0184L16.0194 21.0779C16.0194 23.8721 18.2846 26.1373 21.0788 26.1373C23.8731 26.1373 26.1383 23.8721 26.1383 21.0779C26.1383 18.2836 23.8731 16.0184 21.0788 16.0184L16.0194 16.0184ZM21.0788 27.6748C24.7222 27.6748 27.6758 24.7213 27.6758 21.0779C27.6758 17.4345 24.7222 14.4809 21.0788 14.4809L14.4819 14.4809L14.4819 21.0779C14.4819 24.7213 17.4354 27.6748 21.0788 27.6748Z" fill="#1B85E5"/>
</svg>
