<svg width="27" height="25" viewBox="0 0 27 25" fill="none" xmlns="http://www.w3.org/2000/svg">
<path fill-rule="evenodd" clip-rule="evenodd" d="M17.2203 12.1462C17.2203 9.85354 15.3617 7.99496 13.0691 7.99496C10.7764 7.99496 8.91781 9.85354 8.91781 12.1462C8.91781 14.4389 10.7764 16.2975 13.0691 16.2975C15.3617 16.2975 17.2203 14.4389 17.2203 12.1462ZM13.0691 17.835C16.2109 17.835 18.7578 15.288 18.7578 12.1462C18.7578 9.0044 16.2109 6.45746 13.0691 6.45746C9.92725 6.45746 7.38031 9.0044 7.38031 12.1462C7.38031 15.288 9.92725 17.835 13.0691 17.835Z" fill="#1B85E5"/>
<path fill-rule="evenodd" clip-rule="evenodd" d="M26.2891 24.4463L16.4491 24.4463L16.4491 23.2163L25.0591 23.2163L25.0591 14.6063L26.2891 14.6063L26.2891 24.4463Z" fill="white"/>
<path fill-rule="evenodd" clip-rule="evenodd" d="M0 0L9.84 0V1.23L1.23 1.23L1.23 9.84H8.79765e-07L0 0Z" fill="white"/>
<path fill-rule="evenodd" clip-rule="evenodd" d="M0.179688 23.5509L5.09969 18.6309L5.96943 19.5006L1.04943 24.4206L0.179688 23.5509Z" fill="white"/>
<path fill-rule="evenodd" clip-rule="evenodd" d="M20.4727 5.10066L25.3927 0.180664L26.2624 1.05041L21.3424 5.97041L20.4727 5.10066Z" fill="white"/>
</svg>
