<svg width="24" height="23" viewBox="0 0 24 23" fill="none" xmlns="http://www.w3.org/2000/svg">
<path fill-rule="evenodd" clip-rule="evenodd" d="M10.7252 11.7484L10.7252 22.4736L0 22.4736C-3.69595e-08 22.0509 0.0244608 21.6338 0.0720443 21.2238C0.64357 16.2993 4.55087 12.392 9.4754 11.8204C9.88541 11.7729 10.3025 11.7484 10.7252 11.7484ZM9.4754 13.0799L9.47541 21.2238L1.33152 21.2238C1.88935 16.9904 5.24196 13.6378 9.4754 13.0799Z" fill="white"/>
<path fill-rule="evenodd" clip-rule="evenodd" d="M9.97674 5.36297C9.97674 3.09154 8.13538 1.25018 5.86395 1.25018C3.59252 1.25018 1.75116 3.09154 1.75116 5.36297C1.75116 7.6344 3.59252 9.47576 5.86395 9.47576C8.13538 9.47576 9.97674 7.6344 9.97674 5.36297ZM5.86395 10.7256C8.82564 10.7256 11.2266 8.32466 11.2266 5.36297C11.2266 2.40128 8.82564 0.000356464 5.86395 0.000356205C2.90226 0.000355946 0.501334 2.40128 0.501334 5.36297C0.501333 8.32466 2.90226 10.7256 5.86395 10.7256Z" fill="#1B85E5"/>
<path fill-rule="evenodd" clip-rule="evenodd" d="M13.0209 11.7484L13.0209 22.4736L23.7461 22.4736C23.7461 22.0509 23.7216 21.6338 23.674 21.2238C23.1025 16.2993 19.1952 12.392 14.2707 11.8204C13.8607 11.7729 13.4436 11.7484 13.0209 11.7484ZM14.2707 13.0799L14.2707 21.2238L22.4146 21.2238C21.8567 16.9904 18.5041 13.6378 14.2707 13.0799Z" fill="#1B85E5"/>
<path fill-rule="evenodd" clip-rule="evenodd" d="M19.063 0.0456824C18.8338 0.0157809 18.6 0.000356185 18.3626 0.000356205C18.1252 0.000356226 17.8914 0.015781 17.6622 0.0456825L17.7915 1.03714C17.978 1.01282 18.1686 1.00022 18.3626 1.00022C18.5566 1.00022 18.7472 1.01282 18.9337 1.03714L19.063 0.0456824ZM16.3099 0.407275L16.6929 1.33087C16.3387 1.47772 16.0077 1.67014 15.7072 1.90108L15.0979 1.10828C15.467 0.824705 15.8739 0.588063 16.3099 0.407275ZM14.1079 2.0983L14.9007 2.70754C14.6698 3.00806 14.4774 3.33909 14.3305 3.69323L13.4069 3.31023C13.5877 2.87426 13.8243 2.46731 14.1079 2.0983ZM13.0453 4.66256L14.0368 4.79189C14.0125 4.97836 13.9999 5.16894 13.9999 5.36297C13.9999 5.557 14.0125 5.74759 14.0368 5.93405L13.0453 6.06338C13.0154 5.83414 13 5.60036 13 5.36297C13 5.12558 13.0154 4.8918 13.0453 4.66256ZM13.4069 7.41572L14.3305 7.03272C14.4774 7.38685 14.6698 7.71788 14.9007 8.01841L14.1079 8.62765C13.8243 8.25863 13.5877 7.85168 13.4069 7.41572ZM15.0979 9.61767L15.7072 8.82486C16.0077 9.0558 16.3387 9.24822 16.6929 9.39507L16.3099 10.3187C15.8739 10.1379 15.467 9.90124 15.0979 9.61767ZM17.6622 10.6803C17.8914 10.7102 18.1252 10.7256 18.3626 10.7256C18.6 10.7256 18.8338 10.7102 19.063 10.6803L18.9337 9.6888C18.7472 9.71312 18.5566 9.72573 18.3626 9.72573C18.1686 9.72573 17.978 9.71312 17.7915 9.6888L17.6622 10.6803ZM20.4154 10.3187L20.0324 9.39507C20.3865 9.24822 20.7175 9.0558 21.018 8.82486L21.6273 9.61767C21.2583 9.90124 20.8513 10.1379 20.4154 10.3187ZM22.6173 8.62764L21.8245 8.0184C22.0554 7.71788 22.2479 7.38685 22.3947 7.03271L23.3183 7.41571C23.1375 7.85168 22.9009 8.25863 22.6173 8.62764ZM23.6799 6.06338L22.6884 5.93405C22.7128 5.74758 22.7254 5.557 22.7254 5.36297C22.7254 5.16894 22.7128 4.97836 22.6884 4.79189L23.6799 4.66256C23.7098 4.8918 23.7252 5.12558 23.7252 5.36297C23.7252 5.60036 23.7098 5.83414 23.6799 6.06338ZM23.3183 3.31023L22.3947 3.69323C22.2479 3.33909 22.0554 3.00806 21.8245 2.70754L22.6173 2.0983C22.9009 2.46731 23.1375 2.87426 23.3183 3.31023ZM21.6273 1.10827L21.018 1.90108C20.7175 1.67014 20.3865 1.47772 20.0324 1.33087L20.4154 0.407274C20.8513 0.588062 21.2583 0.824704 21.6273 1.10827Z" fill="white"/>
</svg>
