<svg width="28" height="31" viewBox="0 0 28 31" fill="none" xmlns="http://www.w3.org/2000/svg">
<path fill-rule="evenodd" clip-rule="evenodd" d="M18.9054 18.2545V12.7629L13.5599 9.52778L8.47371 12.7422V18.2745L13.5582 21.0805L18.9054 18.2545ZM13.5414 22.9329L20.5354 19.2367V11.8441L13.5414 7.61133L6.84375 11.8441V19.2367L13.5414 22.9329Z" fill="#1B85E5"/>
<path fill-rule="evenodd" clip-rule="evenodd" d="M13.5447 0L27.675 8.50213V23.4205L13.5454 30.8446L0 23.4126V8.51039L13.5447 0ZM13.5595 1.53071L1.89655 8.85875L13.5593 15.877L25.7383 8.85861L13.5595 1.53071ZM26.371 9.99895L14.2041 17.0104V29.0255L26.371 22.6327V9.99895ZM12.9001 29.0032V17.0022L1.30396 10.024V22.6407L12.9001 29.0032Z" fill="white"/>
</svg>
