<svg width="28" height="28" viewBox="0 0 28 28" fill="none" xmlns="http://www.w3.org/2000/svg">
<path fill-rule="evenodd" clip-rule="evenodd" d="M27.9805 13.2291L26.7543 13.1632C26.7663 12.9525 26.7723 12.7402 26.7723 12.5263C26.7723 12.3125 26.7663 12.1001 26.7543 11.8894L27.9805 11.8236C27.9937 12.0562 28.0004 12.2905 28.0004 12.5263C28.0004 12.7621 27.9937 12.9964 27.9805 13.2291ZM27.8201 10.427L26.6092 10.6255C26.536 10.2042 26.4389 9.7909 26.3193 9.38694L27.4995 9.05718C27.6318 9.50406 27.7392 9.96118 27.8201 10.427ZM27.022 7.73139L25.8876 8.18837C25.7198 7.79538 25.5299 7.41347 25.3193 7.04409L26.3936 6.46609C26.6264 6.87443 26.8364 7.29674 27.022 7.73139ZM25.623 5.2772L24.6221 5.96837C24.3688 5.62228 24.096 5.29053 23.8053 4.97466L24.7207 4.17942C25.0419 4.52831 25.3432 4.8948 25.623 5.2772ZM23.6981 3.18603L22.8794 4.0753C22.5543 3.79283 22.2128 3.52783 21.8565 3.28183L22.568 2.30946C22.9616 2.58128 23.3389 2.87402 23.6981 3.18603ZM21.3441 1.56092L20.7491 2.60453C20.3689 2.39995 19.9757 2.21546 19.5712 2.05249L20.0416 0.950502C20.4891 1.13075 20.9238 1.33476 21.3441 1.56092ZM18.6768 0.486597L18.3374 1.6331C17.9215 1.51691 17.4961 1.42258 17.0624 1.35149L17.2667 0.175136C17.7462 0.253743 18.2168 0.358066 18.6768 0.486597ZM15.8291 0.0193799L15.7613 1.21054C15.5444 1.19889 15.3258 1.19298 15.1057 1.19298C14.8855 1.19298 14.667 1.19889 14.4501 1.21054L14.3823 0.0193802C14.6217 0.00651681 14.8629 0 15.1057 0C15.3484 0 15.5896 0.00651673 15.8291 0.0193799ZM12.9447 0.175137L13.149 1.35149C12.7153 1.42258 12.2898 1.51691 11.874 1.6331L11.5345 0.486598C11.9945 0.358067 12.4651 0.253743 12.9447 0.175137ZM10.1697 0.950504L10.6401 2.05249C10.2356 2.21546 9.84245 2.39995 9.46221 2.60453L8.86721 1.56092C9.28756 1.33476 9.72229 1.13075 10.1697 0.950504ZM7.64335 2.30946L8.35485 3.28183C7.99857 3.52784 7.65707 3.79283 7.33191 4.0753L6.51328 3.18603C6.87244 2.87403 7.2497 2.58128 7.64335 2.30946ZM5.49067 4.17942L6.4061 4.97466C6.11532 5.29053 5.84253 5.62228 5.58929 5.96837L4.58832 5.27721C4.86813 4.8948 5.16949 4.52832 5.49067 4.17942ZM3.81776 6.46609L4.89207 7.0441C4.68147 7.41347 4.49155 7.79539 4.3238 8.18837L3.1894 7.7314C3.37494 7.29674 3.58495 6.87443 3.81776 6.46609ZM2.71185 9.05718L3.89207 9.38694C3.77247 9.7909 3.67536 10.2042 3.60218 10.6255L2.39122 10.4271C2.47214 9.96119 2.57954 9.50406 2.71185 9.05718ZM2.23089 11.8236C2.21765 12.0562 2.21094 12.2905 2.21094 12.5263C2.21094 12.7621 2.21765 12.9964 2.23089 13.2291L3.45708 13.1632C3.44509 12.9525 3.43901 12.7402 3.43901 12.5263C3.43901 12.3125 3.44509 12.1001 3.45708 11.8894L2.23089 11.8236ZM2.39123 14.6256L3.60218 14.4271C3.67536 14.8484 3.77247 15.2617 3.89207 15.6657L2.71185 15.9955C2.57954 15.5486 2.47214 15.0914 2.39123 14.6256ZM3.1894 17.3212L4.3238 16.8643C4.49156 17.2572 4.68147 17.6392 4.89207 18.0085L3.81777 18.5865C3.58495 18.1782 3.37494 17.7559 3.1894 17.3212ZM4.58833 19.7754L5.58929 19.0843C5.84253 19.4304 6.11532 19.7621 6.4061 20.078L5.49068 20.8732C5.16949 20.5243 4.86814 20.1578 4.58833 19.7754ZM6.51328 21.8666L7.33191 20.9773C7.65707 21.2598 7.99858 21.5248 8.35485 21.7708L7.64336 22.7432C7.24971 22.4714 6.87244 22.1786 6.51328 21.8666ZM8.86721 23.4917L9.46221 22.4481C9.84245 22.6527 10.2356 22.8372 10.6401 23.0001L10.1697 24.1021C9.72229 23.9219 9.28756 23.7179 8.86721 23.4917ZM11.5345 24.566L11.874 23.4195C12.2898 23.5357 12.7153 23.63 13.149 23.7011L12.9447 24.8775C12.4651 24.7989 11.9945 24.6946 11.5345 24.566ZM14.3823 25.0333L14.4501 23.8421C14.667 23.8537 14.8855 23.8596 15.1057 23.8596C15.3258 23.8596 15.5444 23.8537 15.7613 23.8421L15.8291 25.0333C15.5896 25.0461 15.3484 25.0526 15.1057 25.0526C14.8629 25.0526 14.6217 25.0461 14.3823 25.0333ZM17.2667 24.8775L17.0624 23.7011C17.4961 23.63 17.9215 23.5357 18.3374 23.4195L18.6768 24.566C18.2168 24.6946 17.7463 24.7989 17.2667 24.8775ZM20.0416 24.1021L19.5712 23.0001C19.9758 22.8372 20.3689 22.6527 20.7491 22.4481L21.3441 23.4917C20.9238 23.7179 20.4891 23.9219 20.0416 24.1021ZM22.568 22.7432L21.8565 21.7708C22.2128 21.5248 22.5543 21.2598 22.8794 20.9773L23.6981 21.8666C23.3389 22.1786 22.9616 22.4714 22.568 22.7432ZM24.7207 20.8732L23.8053 20.078C24.096 19.7621 24.3688 19.4304 24.6221 19.0843L25.623 19.7754C25.3432 20.1578 25.0419 20.5243 24.7207 20.8732ZM26.3936 18.5865L25.3193 18.0085C25.5299 17.6392 25.7198 17.2572 25.8876 16.8643L27.022 17.3212C26.8364 17.7559 26.6264 18.1782 26.3936 18.5865ZM27.4995 15.9954L26.3193 15.6657C26.4389 15.2617 26.536 14.8484 26.6092 14.4271L27.8201 14.6256C27.7392 15.0914 27.6318 15.5486 27.4995 15.9954Z" fill="white"/>
<path d="M12.5263 21.0005C12.5263 24.4595 9.7222 27.2636 6.26316 27.2636C2.80411 27.2636 0 24.4595 0 21.0005C0 17.5414 2.80411 14.7373 6.26316 14.7373C9.7222 14.7373 12.5263 17.5414 12.5263 21.0005Z" fill="#1C1C1C"/>
<path fill-rule="evenodd" clip-rule="evenodd" d="M6.26316 25.6978C8.85744 25.6978 10.9605 23.5947 10.9605 21.0005C10.9605 18.4062 8.85744 16.3031 6.26316 16.3031C3.66887 16.3031 1.56579 18.4062 1.56579 21.0005C1.56579 23.5947 3.66887 25.6978 6.26316 25.6978ZM6.26316 27.2636C9.7222 27.2636 12.5263 24.4595 12.5263 21.0005C12.5263 17.5414 9.7222 14.7373 6.26316 14.7373C2.80411 14.7373 0 17.5414 0 21.0005C0 24.4595 2.80411 27.2636 6.26316 27.2636Z" fill="white"/>
<path d="M16.2087 13.6317C16.2087 15.056 15.054 16.2106 13.6297 16.2106C12.2054 16.2106 11.0508 15.056 11.0508 13.6317C11.0508 12.2074 12.2054 11.0527 13.6297 11.0527C15.054 11.0527 16.2087 12.2074 16.2087 13.6317Z" fill="#1C1C1C"/>
<path fill-rule="evenodd" clip-rule="evenodd" d="M13.6297 14.997C14.3838 14.997 14.9951 14.3857 14.9951 13.6317C14.9951 12.8776 14.3838 12.2664 13.6297 12.2664C12.8757 12.2664 12.2644 12.8776 12.2644 13.6317C12.2644 14.3857 12.8757 14.997 13.6297 14.997ZM13.6297 16.2106C15.054 16.2106 16.2087 15.056 16.2087 13.6317C16.2087 12.2074 15.054 11.0527 13.6297 11.0527C12.2054 11.0527 11.0508 12.2074 11.0508 13.6317C11.0508 15.056 12.2054 16.2106 13.6297 16.2106Z" fill="#1B85E5"/>
<path d="M21.3688 8.47348C21.3688 9.89779 20.2142 11.0524 18.7899 11.0524C17.3656 11.0524 16.2109 9.89779 16.2109 8.47348C16.2109 7.04917 17.3656 5.89453 18.7899 5.89453C20.2142 5.89453 21.3688 7.04917 21.3688 8.47348Z" fill="#1C1C1C"/>
<path fill-rule="evenodd" clip-rule="evenodd" d="M18.7899 9.8388C19.5439 9.8388 20.1552 9.22753 20.1552 8.47348C20.1552 7.71943 19.5439 7.10815 18.7899 7.10815C18.0358 7.10815 17.4246 7.71943 17.4246 8.47348C17.4246 9.22753 18.0358 9.8388 18.7899 9.8388ZM18.7899 11.0524C20.2142 11.0524 21.3688 9.89779 21.3688 8.47348C21.3688 7.04917 20.2142 5.89453 18.7899 5.89453C17.3656 5.89453 16.2109 7.04917 16.2109 8.47348C16.2109 9.89779 17.3656 11.0524 18.7899 11.0524Z" fill="#1B85E5"/>
<path d="M26.5251 3.57895C26.5251 5.00326 25.3704 6.15789 23.9461 6.15789C22.5218 6.15789 21.3672 5.00326 21.3672 3.57895C21.3672 2.15463 22.5218 1 23.9461 1C25.3704 1 26.5251 2.15463 26.5251 3.57895Z" fill="#1C1C1C"/>
<path fill-rule="evenodd" clip-rule="evenodd" d="M23.9461 4.94427C24.7002 4.94427 25.3115 4.333 25.3115 3.57895C25.3115 2.8249 24.7002 2.21362 23.9461 2.21362C23.1921 2.21362 22.5808 2.8249 22.5808 3.57895C22.5808 4.333 23.1921 4.94427 23.9461 4.94427ZM23.9461 6.15789C25.3704 6.15789 26.5251 5.00326 26.5251 3.57895C26.5251 2.15463 25.3704 1 23.9461 1C22.5218 1 21.3672 2.15463 21.3672 3.57895C21.3672 5.00326 22.5218 6.15789 23.9461 6.15789Z" fill="#1B85E5"/>
</svg>
