<svg width="10" height="13" viewBox="0 0 10 13" fill="none" xmlns="http://www.w3.org/2000/svg">
<path d="M8.60471 6.49997C9.45514 5.82911 9.99997 4.80357 9.99997 3.65622C9.99997 1.64007 8.31785 0 6.24997 0H0V1.62501H0.833324V11.375H0V13H6.25C8.31787 13 10 11.3599 10 9.34375C9.99997 8.19638 9.45514 7.17084 8.60471 6.49997ZM6.24997 11.375H2.49997V7.31249H6.24997C7.39867 7.31249 8.33329 8.22378 8.33329 9.34373C8.33329 10.4637 7.39867 11.375 6.24997 11.375ZM6.24997 5.68748H2.49997V1.62501H6.24997C7.39867 1.62501 8.33329 2.5363 8.33329 3.65624C8.33329 4.77619 7.39867 5.68748 6.24997 5.68748Z" fill="white"/>
</svg>
