<svg width="19" height="19" viewBox="0 0 19 19" fill="none" xmlns="http://www.w3.org/2000/svg">
<path d="M4.42123 6.27637H0.375V18.4272H4.42123V6.27637Z" fill="#646464"/>
<path d="M17.7001 7.38692C16.8501 6.45911 15.7259 5.99512 14.3283 5.99512C13.8133 5.99512 13.3452 6.05846 12.9241 6.18524C12.5032 6.31193 12.1477 6.48969 11.8574 6.71859C11.5673 6.94749 11.3363 7.15999 11.1648 7.35608C11.0016 7.54234 10.8421 7.75931 10.6865 8.00475V6.27693H6.65234L6.66471 6.86555C6.673 7.25804 6.67708 8.46775 6.67708 10.4949C6.67708 12.5221 6.66892 15.1664 6.65252 18.428H10.6865V11.6473C10.6865 11.2305 10.7312 10.8995 10.8213 10.6541C10.9931 10.237 11.2524 9.88781 11.6 9.60591C11.9475 9.32367 12.3786 9.18267 12.8937 9.18267C13.5965 9.18267 14.1137 9.42584 14.4448 9.9122C14.7758 10.3985 14.9413 11.0709 14.9413 11.9292V18.4276H18.9753V11.4636C18.975 9.67325 18.5503 8.31443 17.7001 7.38692Z" fill="#646464"/>
<path d="M2.4212 0.428711C1.74282 0.428711 1.19315 0.62708 0.772064 1.02343C0.351019 1.41987 0.140625 1.92036 0.140625 2.52539C0.140625 3.12196 0.344963 3.62074 0.753683 4.02117C1.16227 4.42164 1.70185 4.62198 2.37211 4.62198H2.39664C3.08335 4.62198 3.63722 4.42181 4.05814 4.02117C4.47906 3.62074 4.68541 3.12213 4.6773 2.52539C4.66914 1.92041 4.46055 1.41987 4.05196 1.02343C3.64341 0.626908 3.09962 0.428711 2.4212 0.428711Z" fill="#646464"/>
</svg>
